<svg width="486" height="150" viewBox="0 0 486 150" fill="none" xmlns="http://www.w3.org/2000/svg">
<path opacity="0.05" d="M100.363 6.4V41.6H44.7633V61.2H84.7633V94.6H44.7633V148H0.363281V6.4H100.363ZM169.002 149.4C157.669 149.4 147.469 147.067 138.402 142.4C129.336 137.733 122.202 131.067 117.002 122.4C111.936 113.6 109.402 103.333 109.402 91.6C109.402 79.8667 111.936 69.6667 117.002 61C122.202 52.2 129.336 45.4667 138.402 40.8C147.469 36.1333 157.669 33.8 169.002 33.8C180.336 33.8 190.536 36.1333 199.602 40.8C208.669 45.4667 215.736 52.2 220.802 61C226.002 69.6667 228.602 79.8667 228.602 91.6C228.602 103.333 226.002 113.6 220.802 122.4C215.736 131.067 208.669 137.733 199.602 142.4C190.536 147.067 180.336 149.4 169.002 149.4ZM169.002 111C173.136 111 176.602 109.4 179.402 106.2C182.202 102.867 183.602 98 183.602 91.6C183.602 85.2 182.202 80.4 179.402 77.2C176.602 73.8667 173.136 72.2 169.002 72.2C164.869 72.2 161.402 73.8667 158.602 77.2C155.802 80.4 154.402 85.2 154.402 91.6C154.402 98 155.736 102.867 158.402 106.2C161.202 109.4 164.736 111 169.002 111ZM296.151 149.4C284.817 149.4 274.617 147.067 265.551 142.4C256.484 137.733 249.351 131.067 244.151 122.4C239.084 113.6 236.551 103.333 236.551 91.6C236.551 79.8667 239.084 69.6667 244.151 61C249.351 52.2 256.484 45.4667 265.551 40.8C274.617 36.1333 284.817 33.8 296.151 33.8C307.484 33.8 317.684 36.1333 326.751 40.8C335.817 45.4667 342.884 52.2 347.951 61C353.151 69.6667 355.751 79.8667 355.751 91.6C355.751 103.333 353.151 113.6 347.951 122.4C342.884 131.067 335.817 137.733 326.751 142.4C317.684 147.067 307.484 149.4 296.151 149.4ZM296.151 111C300.284 111 303.751 109.4 306.551 106.2C309.351 102.867 310.751 98 310.751 91.6C310.751 85.2 309.351 80.4 306.551 77.2C303.751 73.8667 300.284 72.2 296.151 72.2C292.017 72.2 288.551 73.8667 285.751 77.2C282.951 80.4 281.551 85.2 281.551 91.6C281.551 98 282.884 102.867 285.551 106.2C288.351 109.4 291.884 111 296.151 111ZM363.699 91.6C363.699 79.7333 365.699 69.4667 369.699 60.8C373.833 52 379.433 45.3333 386.499 40.8C393.566 36.1333 401.499 33.8 410.299 33.8C417.633 33.8 423.899 35.3333 429.099 38.4C434.433 41.3333 438.499 45.4 441.299 50.6V-1.90735e-06H485.699V148H441.299V132.6C438.499 137.8 434.433 141.933 429.099 145C423.899 147.933 417.633 149.4 410.299 149.4C401.499 149.4 393.566 147.133 386.499 142.6C379.433 137.933 373.833 131.267 369.699 122.6C365.699 113.8 363.699 103.467 363.699 91.6ZM441.499 91.6C441.499 85.6 439.966 80.9333 436.899 77.6C433.833 74.2667 429.899 72.6 425.099 72.6C420.299 72.6 416.366 74.2667 413.299 77.6C410.233 80.9333 408.699 85.6 408.699 91.6C408.699 97.6 410.233 102.267 413.299 105.6C416.366 108.933 420.299 110.6 425.099 110.6C429.899 110.6 433.833 108.933 436.899 105.6C439.966 102.267 441.499 97.6 441.499 91.6Z" fill="#2E266F"/>
</svg>
